{
    "asset" : {
        "generator" : "Khronos glTF Blender I/O v3.4.49",
        "version" : "2.0"
    },
    "scene" : 0,
    "scenes" : [
        {
            "name" : "Scene",
            "nodes" : [
                0,
                1,
                2
            ]
        }
    ],
    "nodes" : [
        {
            "mesh" : 0,
            "name" : "CactusA.001",
            "scale" : [
                1,
                5,
                1
            ],
            "translation" : [
                0.43550243973731995,
                0,
                0.7738124132156372
            ]
        },
        {
            "mesh" : 1,
            "name" : "CactusA",
            "scale" : [
                2,
                2,
                2
            ],
            "translation" : [
                2.5891640186309814,
                0.0330011248588562,
                0.7515937089920044
            ]
        },
        {
            "name" : "Circle",
            "scale" : [
                0.5,
                0.5,
                0.5
            ]
        }
    ],
    "materials" : [
        {
            "doubleSided" : true,
            "name" : "Cactus",
            "pbrMetallicRoughness" : {
                "baseColorFactor" : [
                    1,
                    1,
                    1,
                    1
                ],
                "metallicFactor" : 0,
                "roughnessFactor" : 0.5
            }
        }
    ],
    "meshes" : [
        {
            "name" : "Circle.002",
            "primitives" : [
                {
                    "attributes" : {
                        "POSITION" : 0,
                        "TEXCOORD_0" : 1,
                        "NORMAL" : 2
                    },
                    "indices" : 3,
                    "material" : 0
                }
            ]
        },
        {
            "name" : "Circle.001",
            "primitives" : [
                {
                    "attributes" : {
                        "POSITION" : 4,
                        "TEXCOORD_0" : 5,
                        "NORMAL" : 6
                    },
                    "indices" : 7,
                    "material" : 0
                }
            ]
        }
    ],
    "accessors" : [
        {
            "bufferView" : 0,
            "componentType" : 5126,
            "count" : 363,
            "max" : [
                1.26569664478302,
                0.8049296140670776,
                0.4815000593662262
            ],
            "min" : [
                -1.3029396533966064,
                0.0026413053274154663,
                -0.4815000593662262
            ],
            "type" : "VEC3"
        },
        {
            "bufferView" : 1,
            "componentType" : 5126,
            "count" : 363,
            "type" : "VEC2"
        },
        {
            "bufferView" : 2,
            "componentType" : 5126,
            "count" : 363,
            "type" : "VEC3"
        },
        {
            "bufferView" : 3,
            "componentType" : 5123,
            "count" : 1584,
            "type" : "SCALAR"
        },
        {
            "bufferView" : 4,
            "componentType" : 5126,
            "count" : 121,
            "max" : [
                0.32100003957748413,
                0.5748589038848877,
                0.32100003957748413
            ],
            "min" : [
                -0.32099997997283936,
                0,
                -0.32100003957748413
            ],
            "type" : "VEC3"
        },
        {
            "bufferView" : 5,
            "componentType" : 5126,
            "count" : 121,
            "type" : "VEC2"
        },
        {
            "bufferView" : 6,
            "componentType" : 5126,
            "count" : 121,
            "type" : "VEC3"
        },
        {
            "bufferView" : 7,
            "componentType" : 5123,
            "count" : 528,
            "type" : "SCALAR"
        }
    ],
    "bufferViews" : [
        {
            "buffer" : 0,
            "byteLength" : 4356,
            "byteOffset" : 0,
            "target" : 34962
        },
        {
            "buffer" : 0,
            "byteLength" : 2904,
            "byteOffset" : 4356,
            "target" : 34962
        },
        {
            "buffer" : 0,
            "byteLength" : 4356,
            "byteOffset" : 7260,
            "target" : 34962
        },
        {
            "buffer" : 0,
            "byteLength" : 3168,
            "byteOffset" : 11616,
            "target" : 34963
        },
        {
            "buffer" : 0,
            "byteLength" : 1452,
            "byteOffset" : 14784,
            "target" : 34962
        },
        {
            "buffer" : 0,
            "byteLength" : 968,
            "byteOffset" : 16236,
            "target" : 34962
        },
        {
            "buffer" : 0,
            "byteLength" : 1452,
            "byteOffset" : 17204,
            "target" : 34962
        },
        {
            "buffer" : 0,
            "byteLength" : 1056,
            "byteOffset" : 18656,
            "target" : 34963
        }
    ],
    "buffers" : [
        {
            "byteLength" : 19712,
            "uri" : "data:application/octet-stream;base64,"
        }
    ]
}
