{
  "accessors": [
    {
      "bufferView": 2,
      "componentType": 5126,
      "count": 1149,
      "max": [
        1.3933223485946655,
        0.8492467999458313,
        4.416565418243408
      ],
      "min": [
        -0.6812386512756348,
        -2.1139066219329834,
        -0.8125780820846558
      ],
      "type": "VEC3"
    },
    {
      "bufferView": 2,
      "byteOffset": 13788,
      "componentType": 5126,
      "count": 1149,
      "max": [
        0.9979016184806824,
        0.9985982775688171,
        0.9999346733093262
      ],
      "min": [
        -0.998490035533905,
        -0.9999959468841553,
        -0.9946776032447815
      ],
      "type": "VEC3"
    },
    {
      "bufferView": 1,
      "componentType": 5126,
      "count": 1149,
      "max": [
        1.1973134279251099,
        1.4408963918685913
      ],
      "min": [
        -0.04729554429650307,
        -0.5527791380882263
      ],
      "type": "VEC2"
    },
    {
      "bufferView": 0,
      "componentType": 5125,
      "count": 5544,
      "type": "SCALAR"
    },
    {
      "bufferView": 2,
      "byteOffset": 27576,
      "componentType": 5126,
      "count": 31008,
      "max": [
        1.5038704872131348,
        0.953426718711853,
        4.4956464767456055
      ],
      "min": [
        -0.7858102917671204,
        -2.209265947341919,
        -0.8842779397964478
      ],
      "type": "VEC3"
    },
    {
      "bufferView": 2,
      "byteOffset": 399672,
      "componentType": 5126,
      "count": 31008,
      "max": [
        0.9900123476982117,
        0.9995195269584656,
        0.9932106733322144
      ],
      "min": [
        -0.9998641610145569,
        -0.9988481998443604,
        -0.9931103587150574
      ],
      "type": "VEC3"
    },
    {
      "bufferView": 1,
      "byteOffset": 9192,
      "componentType": 5126,
      "count": 31008,
      "max": [
        0.625,
        1.0
      ],
      "min": [
        0.125,
        0.0
      ],
      "type": "VEC2"
    },
    {
      "bufferView": 0,
      "byteOffset": 22176,
      "componentType": 5125,
      "count": 44484,
      "type": "SCALAR"
    },
    {
      "bufferView": 2,
      "byteOffset": 771768,
      "componentType": 5126,
      "count": 262,
      "max": [
        0.555570125579834,
        0.5555702447891235,
        1.2938504219055176
      ],
      "min": [
        -3.438852071762085,
        -0.555570125579834,
        0.8314695954322815
      ],
      "type": "VEC3"
    },
    {
      "bufferView": 2,
      "byteOffset": 774912,
      "componentType": 5126,
      "count": 262,
      "max": [
        0.5597748160362244,
        0.5597748160362244,
        1.0
      ],
      "min": [
        -0.5597748160362244,
        -0.5597748160362244,
        0.828644871711731
      ],
      "type": "VEC3"
    },
    {
      "bufferView": 1,
      "byteOffset": 257256,
      "componentType": 5126,
      "count": 262,
      "max": [
        1.0000001192092896,
        1.0
      ],
      "min": [
        0.0,
        0.8125
      ],
      "type": "VEC2"
    },
    {
      "bufferView": 0,
      "byteOffset": 200112,
      "componentType": 5125,
      "count": 960,
      "type": "SCALAR"
    },
    {
      "bufferView": 2,
      "byteOffset": 778056,
      "componentType": 5126,
      "count": 922,
      "max": [
        0.9999997019767761,
        0.9999987483024597,
        1.1328212022781372
      ],
      "min": [
        -3.863499879837036,
        -0.9999994039535522,
        -1.0
      ],
      "type": "VEC3"
    },
    {
      "bufferView": 2,
      "byteOffset": 789120,
      "componentType": 5126,
      "count": 922,
      "max": [
        1.0,
        1.0,
        0.8286598920822144
      ],
      "min": [
        -1.0,
        -1.0,
        -1.0
      ],
      "type": "VEC3"
    },
    {
      "bufferView": 1,
      "byteOffset": 259352,
      "componentType": 5126,
      "count": 922,
      "max": [
        1.0000001192092896,
        0.8125001192092896
      ],
      "min": [
        0.0,
        0.0
      ],
      "type": "VEC2"
    },
    {
      "bufferView": 0,
      "byteOffset": 203952,
      "componentType": 5125,
      "count": 4800,
      "type": "SCALAR"
    },
    {
      "bufferView": 2,
      "byteOffset": 800184,
      "componentType": 5126,
      "count": 12240,
      "max": [
        74.09664916992188,
        940.15771484375,
        587.800048828125
      ],
      "min": [
        -236.34542846679688,
        -171.39468383789063,
        -209.75706481933594
      ],
      "type": "VEC3"
    },
    {
      "bufferView": 2,
      "byteOffset": 947064,
      "componentType": 5126,
      "count": 12240,
      "max": [
        1.0,
        1.0,
        0.9999979138374329
      ],
      "min": [
        -1.0,
        -1.0,
        -1.0
      ],
      "type": "VEC3"
    },
    {
      "bufferView": 1,
      "byteOffset": 266728,
      "componentType": 5126,
      "count": 12240,
      "max": [
        0.625,
        1.0
      ],
      "min": [
        0.125,
        0.0
      ],
      "type": "VEC2"
    },
    {
      "bufferView": 0,
      "byteOffset": 223152,
      "componentType": 5125,
      "count": 16830,
      "type": "SCALAR"
    },
    {
      "bufferView": 2,
      "byteOffset": 1093944,
      "componentType": 5126,
      "count": 32878,
      "max": [
        61.04502868652344,
        934.6779174804688,
        572.3255615234375
      ],
      "min": [
        -217.53872680664063,
        -162.6798095703125,
        -201.73342895507813
      ],
      "type": "VEC3"
    },
    {
      "bufferView": 2,
      "byteOffset": 1488480,
      "componentType": 5126,
      "count": 32878,
      "max": [
        0.9999619722366333,
        0.9976920485496521,
        0.9999610185623169
      ],
      "min": [
        -0.9998571872711182,
        -0.9996167421340942,
        -0.9999740123748779
      ],
      "type": "VEC3"
    },
    {
      "bufferView": 1,
      "byteOffset": 364648,
      "componentType": 5126,
      "count": 32878,
      "max": [
        1.3355093002319336,
        3.7030375003814697
      ],
      "min": [
        -0.10419835895299911,
        -3.4154179096221924
      ],
      "type": "VEC2"
    },
    {
      "bufferView": 0,
      "byteOffset": 290472,
      "componentType": 5125,
      "count": 174612,
      "type": "SCALAR"
    },
    {
      "bufferView": 2,
      "byteOffset": 1883016,
      "componentType": 5126,
      "count": 1149,
      "max": [
        1.3933223485946655,
        0.8492467999458313,
        4.416565418243408
      ],
      "min": [
        -0.6812386512756348,
        -2.1139066219329834,
        -0.8125780820846558
      ],
      "type": "VEC3"
    },
    {
      "bufferView": 2,
      "byteOffset": 1896804,
      "componentType": 5126,
      "count": 1149,
      "max": [
        0.9979016184806824,
        0.9985982775688171,
        0.9999346733093262
      ],
      "min": [
        -0.998490035533905,
        -0.9999959468841553,
        -0.9946776032447815
      ],
      "type": "VEC3"
    },
    {
      "bufferView": 1,
      "byteOffset": 627672,
      "componentType": 5126,
      "count": 1149,
      "max": [
        1.1973134279251099,
        1.4408963918685913
      ],
      "min": [
        -0.04729554429650307,
        -0.5527791380882263
      ],
      "type": "VEC2"
    },
    {
      "bufferView": 0,
      "byteOffset": 988920,
      "componentType": 5125,
      "count": 5544,
      "type": "SCALAR"
    },
    {
      "bufferView": 2,
      "byteOffset": 1910592,
      "componentType": 5126,
      "count": 31008,
      "max": [
        1.5038704872131348,
        0.953426718711853,
        4.4956464767456055
      ],
      "min": [
        -0.7858102917671204,
        -2.209265947341919,
        -0.8842779397964478
      ],
      "type": "VEC3"
    },
    {
      "bufferView": 2,
      "byteOffset": 2282688,
      "componentType": 5126,
      "count": 31008,
      "max": [
        0.9900123476982117,
        0.9995195269584656,
        0.9932106733322144
      ],
      "min": [
        -0.9998641610145569,
        -0.9988481998443604,
        -0.9931103587150574
      ],
      "type": "VEC3"
    },
    {
      "bufferView": 1,
      "byteOffset": 636864,
      "componentType": 5126,
      "count": 31008,
      "max": [
        0.625,
        1.0
      ],
      "min": [
        0.125,
        0.0
      ],
      "type": "VEC2"
    },
    {
      "bufferView": 0,
      "byteOffset": 1011096,
      "componentType": 5125,
      "count": 44484,
      "type": "SCALAR"
    }
  ],
  "asset": {
    "extras": {
      "author": "Šimon Ustal (https://sketchfab.com/simonustal)",
      "license": "CC-BY-4.0 (http://creativecommons.org/licenses/by/4.0/)",
      "source": "https://sketchfab.com/3d-models/my-friend-cactus-3december-cactus-847e18b48b0f41a5bdf4e5ab1ff9bf1d",
      "title": "My Friend Cactus - 3December [Cactus]"
    },
    "generator": "Sketchfab-12.68.0",
    "version": "2.0"
  },
  "bufferViews": [
    {
      "buffer": 0,
      "byteLength": 1189032,
      "name": "floatBufferViews",
      "target": 34963
    },
    {
      "buffer": 0,
      "byteLength": 884928,
      "byteOffset": 1189032,
      "byteStride": 8,
      "name": "floatBufferViews",
      "target": 34962
    },
    {
      "buffer": 0,
      "byteLength": 2654784,
      "byteOffset": 2073960,
      "byteStride": 12,
      "name": "floatBufferViews",
      "target": 34962
    }
  ],
  "buffers": [
    {
      "byteLength": 4728744,
      "uri": "scene.bin"
    }
  ],
  "images": [
    {
      "uri": "textures/Material.001_baseColor.png"
    },
    {
      "uri": "textures/Material.001_metallicRoughness.png"
    }
  ],
  "materials": [
    {
      "doubleSided": true,
      "name": "Material.001",
      "occlusionTexture": {
        "index": 1
      },
      "pbrMetallicRoughness": {
        "baseColorTexture": {
          "index": 0
        },
        "metallicFactor": 0.6401282309,
        "metallicRoughnessTexture": {
          "index": 1
        }
      }
    },
    {
      "doubleSided": true,
      "name": "Material.003",
      "pbrMetallicRoughness": {
        "baseColorFactor": [
          0.114935,
          0.114935,
          0.114935,
          1.0
        ],
        "metallicFactor": 0.7617316941186485,
        "roughnessFactor": 0.9010071806845059
      }
    },
    {
      "doubleSided": true,
      "name": "Material.002",
      "pbrMetallicRoughness": {
        "baseColorFactor": [
          0.0,
          0.0,
          0.0,
          1.0
        ],
        "metallicFactor": 0.5671661528920344,
        "roughnessFactor": 0.3902726349646438
      }
    },
    {
      "doubleSided": true,
      "name": "Material.004",
      "pbrMetallicRoughness": {
        "baseColorFactor": [
          0.8,
          0.8,
          0.8,
          1.0
        ],
        "metallicFactor": 0.0,
        "roughnessFactor": 0.8211145618000169
      }
    }
  ],
  "meshes": [
    {
      "name": "Cylinder.003_Material.001_0",
      "primitives": [
        {
          "attributes": {
            "NORMAL": 1,
            "POSITION": 0,
            "TEXCOORD_0": 2
          },
          "indices": 3,
          "material": 0,
          "mode": 4
        }
      ]
    },
    {
      "name": "Cylinder.003_Material.003_0",
      "primitives": [
        {
          "attributes": {
            "NORMAL": 5,
            "POSITION": 4,
            "TEXCOORD_0": 6
          },
          "indices": 7,
          "material": 1,
          "mode": 4
        }
      ]
    },
    {
      "name": "Sphere.001_Material.002_0",
      "primitives": [
        {
          "attributes": {
            "NORMAL": 9,
            "POSITION": 8,
            "TEXCOORD_0": 10
          },
          "indices": 11,
          "material": 2,
          "mode": 4
        }
      ]
    },
    {
      "name": "Sphere.001_Material.004_0",
      "primitives": [
        {
          "attributes": {
            "NORMAL": 13,
            "POSITION": 12,
            "TEXCOORD_0": 14
          },
          "indices": 15,
          "material": 3,
          "mode": 4
        }
      ]
    },
    {
      "name": "Cube.088_Material.003_0",
      "primitives": [
        {
          "attributes": {
            "NORMAL": 17,
            "POSITION": 16,
            "TEXCOORD_0": 18
          },
          "indices": 19,
          "material": 1,
          "mode": 4
        }
      ]
    },
    {
      "name": "Cube.088_Material.001_0",
      "primitives": [
        {
          "attributes": {
            "NORMAL": 21,
            "POSITION": 20,
            "TEXCOORD_0": 22
          },
          "indices": 23,
          "material": 0,
          "mode": 4
        }
      ]
    },
    {
      "name": "Cylinder.001_Material.001_0",
      "primitives": [
        {
          "attributes": {
            "NORMAL": 25,
            "POSITION": 24,
            "TEXCOORD_0": 26
          },
          "indices": 27,
          "material": 0,
          "mode": 4
        }
      ]
    },
    {
      "name": "Cylinder.001_Material.003_0",
      "primitives": [
        {
          "attributes": {
            "NORMAL": 29,
            "POSITION": 28,
            "TEXCOORD_0": 30
          },
          "indices": 31,
          "material": 1,
          "mode": 4
        }
      ]
    }
  ],
  "nodes": [
    {
      "children": [
        1
      ],
      "matrix": [
        1.0,
        0.0,
        0.0,
        0.0,
        0.0,
        2.220446049250313e-16,
        -1.0,
        0.0,
        0.0,
        1.0,
        2.220446049250313e-16,
        0.0,
        0.0,
        0.0,
        0.0,
        1.0
      ],
      "name": "Sketchfab_model"
    },
    {
      "children": [
        2
      ],
      "matrix": [
        0.009999999776482582,
        0.0,
        0.0,
        0.0,
        0.0,
        0.0,
        0.009999999776482582,
        0.0,
        0.0,
        -0.009999999776482582,
        0.0,
        0.0,
        0.0,
        0.0,
        0.0,
        1.0
      ],
      "name": "9e1e9815707b4e889456363d8d1ad5f7.fbx"
    },
    {
      "children": [
        3,
        6,
        8,
        11,
        14,
        17
      ],
      "name": "RootNode"
    },
    {
      "children": [
        4
      ],
      "matrix": [
        -29.08647719990347,
        -5.518906457566863,
        -95.51711910171437,
        0.0,
        56.63930913109449,
        79.46723428563203,
        -21.83912397841966,
        0.0,
        77.11008775993375,
        -60.45246356562044,
        -19.98834696773717,
        0.0,
        117.02484893798828,
        1060.3511962890625,
        -100.54539489746094,
        1.0
      ],
      "name": "Light"
    },
    {
      "children": [
        5
      ],
      "matrix": [
        1.0,
        0.0,
        0.0,
        0.0,
        0.0,
        2.220446049250313e-16,
        1.0,
        0.0,
        0.0,
        -1.0,
        2.220446049250313e-16,
        0.0,
        0.0,
        0.0,
        0.0,
        1.0
      ],
      "name": "Object_4"
    },
    {
      "name": "Object_5"
    },
    {
      "children": [
        7
      ],
      "matrix": [
        -65.15581009765468,
        -44.527143038140764,
        -61.41704928909654,
        0.0,
        -32.40135466989878,
        89.5395708958271,
        -30.542085476036902,
        0.0,
        68.59207001076176,
        1.2755314797120858e-05,
        -72.76761921184276,
        0.0,
        735.88916015625,
        495.8309326171875,
        692.5791015625,
        1.0
      ],
      "name": "Camera"
    },
    {
      "name": "Object_7"
    },
    {
      "children": [
        9,
        10
      ],
      "matrix": [
        -18.43955369686506,
        -8.033466274441798,
        26.965909196425024,
        0.0,
        26.203135356042637,
        9.178478805129696,
        20.652339859895818,
        0.0,
        -15.760918054383476,
        41.456074363187575,
        1.5727888194975956,
        0.0,
        -54.39469909667969,
        463.38153076171875,
        -0.08469820022583008,
        1.0
      ],
      "name": "Cylinder.003"
    },
    {
      "mesh": 0,
      "name": "Cylinder.003_Material.001_0"
    },
    {
      "mesh": 1,
      "name": "Cylinder.003_Material.003_0"
    },
    {
      "children": [
        12,
        13
      ],
      "matrix": [
        12.451488494873047,
        0.0,
        0.0,
        0.0,
        0.0,
        12.451488494873034,
        5.442718483472458e-07,
        0.0,
        0.0,
        -5.442718483472458e-07,
        12.451488494873034,
        0.0,
        16.27326011657715,
        510.74700927734375,
        33.127723693847656,
        1.0
      ],
      "name": "Sphere.001"
    },
    {
      "mesh": 2,
      "name": "Sphere.001_Material.002_0"
    },
    {
      "mesh": 3,
      "name": "Sphere.001_Material.004_0"
    },
    {
      "children": [
        15,
        16
      ],
      "matrix": [
        -0.5397950370240405,
        0.06786797466324715,
        0.12183067009519313,
        0.0,
        -0.12329360639715357,
        -0.4598512597241232,
        -0.29010841981369395,
        0.0,
        0.06517252826270836,
        -0.30782817958688263,
        0.4602411064105882,
        0.0,
        -6.9561004638671875,
        589.411376953125,
        33.23025894165039,
        1.0
      ],
      "name": "Cube.088"
    },
    {
      "mesh": 4,
      "name": "Cube.088_Material.003_0"
    },
    {
      "mesh": 5,
      "name": "Cube.088_Material.001_0"
    },
    {
      "children": [
        18,
        19
      ],
      "matrix": [
        13.971171337003291,
        -6.0867523986969445,
        -20.431385391540797,
        0.0,
        -19.853453238358778,
        6.954293172294792,
        -15.647742497401465,
        0.0,
        11.941642090077538,
        31.410218456224047,
        -1.1916712635871471,
        0.0,
        57.167720794677734,
        405.447021484375,
        -0.08470598608255386,
        1.0
      ],
      "name": "Cylinder.001"
    },
    {
      "mesh": 6,
      "name": "Cylinder.001_Material.001_0"
    },
    {
      "mesh": 7,
      "name": "Cylinder.001_Material.003_0"
    }
  ],
  "samplers": [
    {
      "magFilter": 9729,
      "minFilter": 9987,
      "wrapS": 10497,
      "wrapT": 10497
    }
  ],
  "scene": 0,
  "scenes": [
    {
      "name": "Sketchfab_Scene",
      "nodes": [
        0
      ]
    }
  ],
  "textures": [
    {
      "sampler": 0,
      "source": 0
    },
    {
      "sampler": 0,
      "source": 1
    }
  ]
}
