{
  "accessors": [
    {
      "bufferView": 2,
      "componentType": 5126,
      "count": 203,
      "max": [
        1.6396793127059937,
        0.34802788496017456,
        1.021881103515625
      ],
      "min": [
        -0.75017911195755,
        -0.6163437962532043,
        -1.1395403146743774
      ],
      "type": "VEC3"
    },
    {
      "bufferView": 2,
      "byteOffset": 2436,
      "componentType": 5126,
      "count": 203,
      "max": [
        0.9728297591209412,
        0.9995627999305725,
        0.9780773520469666
      ],
      "min": [
        -0.9869050979614258,
        -0.9998573064804077,
        -0.9906748533248901
      ],
      "type": "VEC3"
    },
    {
      "bufferView": 3,
      "componentType": 5126,
      "count": 203,
      "max": [
        0.9884796142578125,
        0.9647935032844543,
        0.9852244257926941,
        1.0
      ],
      "min": [
        -0.9993727207183838,
        -0.9611835479736328,
        -0.9964936971664429,
        1.0
      ],
      "type": "VEC4"
    },
    {
      "bufferView": 1,
      "componentType": 5126,
      "count": 203,
      "max": [
        0.8778111934661865,
        0.998046875
      ],
      "min": [
        0.0019531215075403452,
        0.001953121623955667
      ],
      "type": "VEC2"
    },
    {
      "bufferView": 0,
      "componentType": 5125,
      "count": 1164,
      "type": "SCALAR"
    }
  ],
  "asset": {
    "extras": {
      "author": "Kallvin (https://sketchfab.com/Kallvin)",
      "license": "CC-BY-4.0 (http://creativecommons.org/licenses/by/4.0/)",
      "source": "https://sketchfab.com/3d-models/small-ground-stone-pebble-adbc195285d7469e9d51bd088003659c",
      "title": "Small Ground Stone (pebble)"
    },
    "generator": "Sketchfab-12.66.0",
    "version": "2.0"
  },
  "bufferViews": [
    {
      "buffer": 0,
      "byteLength": 4656,
      "name": "floatBufferViews",
      "target": 34963
    },
    {
      "buffer": 0,
      "byteLength": 1624,
      "byteOffset": 4656,
      "byteStride": 8,
      "name": "floatBufferViews",
      "target": 34962
    },
    {
      "buffer": 0,
      "byteLength": 4872,
      "byteOffset": 6280,
      "byteStride": 12,
      "name": "floatBufferViews",
      "target": 34962
    },
    {
      "buffer": 0,
      "byteLength": 3248,
      "byteOffset": 11152,
      "byteStride": 16,
      "name": "floatBufferViews",
      "target": 34962
    }
  ],
  "buffers": [
    {
      "byteLength": 14400,
      "uri": "scene.bin"
    }
  ],
  "images": [
    {
      "uri": "textures/PolySphere_baseColor.png"
    },
    {
      "uri": "textures/PolySphere_metallicRoughness.png"
    },
    {
      "uri": "textures/PolySphere_normal.png"
    }
  ],
  "materials": [
    {
      "doubleSided": true,
      "name": "PolySphere",
      "normalTexture": {
        "index": 2
      },
      "occlusionTexture": {
        "index": 1
      },
      "pbrMetallicRoughness": {
        "baseColorTexture": {
          "index": 0
        },
        "metallicFactor": 0.0,
        "metallicRoughnessTexture": {
          "index": 1
        }
      }
    }
  ],
  "meshes": [
    {
      "name": "PolySphere_PolySphere_0",
      "primitives": [
        {
          "attributes": {
            "NORMAL": 1,
            "POSITION": 0,
            "TANGENT": 2,
            "TEXCOORD_0": 3
          },
          "indices": 4,
          "material": 0,
          "mode": 4
        }
      ]
    }
  ],
  "nodes": [
    {
      "children": [
        1
      ],
      "matrix": [
        1.0,
        0.0,
        0.0,
        0.0,
        0.0,
        2.220446049250313e-16,
        -1.0,
        0.0,
        0.0,
        1.0,
        2.220446049250313e-16,
        0.0,
        0.0,
        0.0,
        0.0,
        1.0
      ],
      "name": "Sketchfab_model"
    },
    {
      "children": [
        2
      ],
      "matrix": [
        1.0,
        0.0,
        0.0,
        0.0,
        0.0,
        0.0,
        1.0,
        0.0,
        0.0,
        -1.0,
        0.0,
        0.0,
        0.0,
        0.0,
        0.0,
        1.0
      ],
      "name": "63fe19d42c4c4b6b9afcaf08f09d24f6.fbx"
    },
    {
      "children": [
        3
      ],
      "name": "RootNode"
    },
    {
      "children": [
        4
      ],
      "name": "PolySphere"
    },
    {
      "mesh": 0,
      "name": "PolySphere_PolySphere_0"
    }
  ],
  "samplers": [
    {
      "magFilter": 9729,
      "minFilter": 9987,
      "wrapS": 10497,
      "wrapT": 10497
    }
  ],
  "scene": 0,
  "scenes": [
    {
      "name": "Sketchfab_Scene",
      "nodes": [
        0
      ]
    }
  ],
  "textures": [
    {
      "sampler": 0,
      "source": 0
    },
    {
      "sampler": 0,
      "source": 1
    },
    {
      "sampler": 0,
      "source": 2
    }
  ]
}
